<?xml version="1.0" encoding="UTF-8" standalone="no"?>
<!-- Created with Inkscape (http://www.inkscape.org/) -->

<svg
   xmlns:dc="http://purl.org/dc/elements/1.1/"
   xmlns:cc="http://creativecommons.org/ns#"
   xmlns:rdf="http://www.w3.org/1999/02/22-rdf-syntax-ns#"
   xmlns:svg="http://www.w3.org/2000/svg"
   xmlns="http://www.w3.org/2000/svg"
   xmlns:sodipodi="http://sodipodi.sourceforge.net/DTD/sodipodi-0.dtd"
   xmlns:inkscape="http://www.inkscape.org/namespaces/inkscape"
   id="svg2"
   version="1.1"
   inkscape:version="0.91 r"
   xml:space="preserve"
   width="180"
   height="180"
   viewBox="0 0 180 180"
   sodipodi:docname="logo_instagram_white.svg"><metadata
     id="metadata8"><rdf:RDF><cc:Work
         rdf:about=""><dc:format>image/svg+xml</dc:format><dc:type
           rdf:resource="http://purl.org/dc/dcmitype/StillImage" /><dc:title></dc:title></cc:Work></rdf:RDF></metadata><defs
     id="defs6" /><sodipodi:namedview
     pagecolor="#ffffff"
     bordercolor="#666666"
     borderopacity="1"
     objecttolerance="10"
     gridtolerance="10"
     guidetolerance="10"
     inkscape:pageopacity="0"
     inkscape:pageshadow="2"
     inkscape:window-width="1366"
     inkscape:window-height="716"
     id="namedview4"
     showgrid="false"
     inkscape:zoom="1"
     inkscape:cx="251.83455"
     inkscape:cy="-48.570673"
     inkscape:window-x="0"
     inkscape:window-y="0"
     inkscape:window-maximized="1"
     inkscape:current-layer="g12" /><g
     id="g10"
     inkscape:groupmode="layer"
     inkscape:label="ink_ext_XXXXXX"
     transform="matrix(1.25,0,0,-1.25,0,180)"><g
       id="g12"
       transform="scale(0.1,0.1)"><path
         inkscape:connector-curvature="0"
         d="m 3863.4457,-836.55117 c -0.1304,0.90827 -0.3539,1.77928 -0.5077,2.68754 -0.3027,1.74202 -0.6288,3.48403 -1.0806,5.18877 -0.2655,1.02472 -0.6427,2.00751 -0.9595,2.9903 -0.4937,1.51844 -0.9874,3.03222 -1.5929,4.50874 -0.4239,1.02471 -0.913,2.04476 -1.3834,3.03221 -0.6521,1.39734 -1.3275,2.76207 -2.1053,4.08488 -0.5683,0.98745 -1.1691,1.93763 -1.756,2.87851 -0.8384,1.2902 -1.6861,2.54314 -2.6177,3.75417 -0.68,0.90361 -1.3973,1.81653 -2.1146,2.68754 -0.9875,1.13184 -2.0122,2.26834 -3.0928,3.33497 -0.8105,0.82909 -1.6116,1.66283 -2.4593,2.42671 -1.1365,1.02005 -2.3103,2.0075 -3.5027,2.94837 -0.9222,0.72196 -1.8398,1.44391 -2.804,2.12395 -0.3633,0.22823 -0.68,0.53099 -1.0247,0.75922 l -658.1281,438.74909 c -20.7925,13.8616 -47.8543,13.8616 -68.6467,0 l -658.1234,-438.74443 c -0.3401,-0.22823 -0.6615,-0.53099 -1.0201,-0.75922 -0.9688,-0.68004 -1.8771,-1.40199 -2.7854,-2.12395 -1.211,-0.94553 -2.3848,-1.93298 -3.5026,-2.94838 -0.871,-0.76387 -1.6629,-1.59296 -2.4826,-2.4267 -1.076,-1.06663 -2.1007,-2.20313 -3.0649,-3.33497 -0.7406,-0.87567 -1.4579,-1.78393 -2.1379,-2.68754 -0.9083,-1.21103 -1.7839,-2.46397 -2.5944,-3.75418 -0.6241,-0.94553 -1.211,-1.89106 -1.7793,-2.87851 -0.7592,-1.32281 -1.4392,-2.68754 -2.1006,-4.08487 -0.4751,-0.98279 -0.9689,-2.0075 -1.3834,-3.03222 -0.6055,-1.47651 -1.0992,-2.99029 -1.5883,-4.50873 -0.3261,-0.98279 -0.6801,-1.96558 -0.9688,-2.9903 -0.4518,-1.70475 -0.7546,-3.44676 -1.076,-5.18877 -0.149,-0.90826 -0.3773,-1.77927 -0.4937,-2.68754 -0.3587,-2.65028 -0.5683,-5.33782 -0.5683,-8.06728 l 0,-438.74911 c 0,-2.7248 0.205,-5.4124 0.5683,-8.1046 0.1164,-0.8756 0.3447,-1.7792 0.4937,-2.6456 0.3214,-1.742 0.6242,-3.484 1.076,-5.1887 0.2887,-1.0248 0.6427,-2.0122 0.9688,-2.995 0.4891,-1.5091 0.9828,-3.0276 1.5883,-4.5413 0.4145,-1.0341 0.9083,-2.0169 1.3834,-3.0043 0.666,-1.3973 1.3461,-2.7574 2.1006,-4.1222 0.5683,-0.9501 1.1552,-1.891 1.7793,-2.8412 0.8105,-1.2855 1.6861,-2.5385 2.5944,-3.7542 0.68,-0.9455 1.402,-1.8212 2.1379,-2.6875 0.9689,-1.1319 1.9889,-2.273 3.0649,-3.335 0.8151,-0.8291 1.6116,-1.6628 2.4826,-2.422 1.1178,-1.0294 2.2916,-2.0122 3.5026,-2.9577 0.9083,-0.722 1.8212,-1.4439 2.7854,-2.1147 0.3586,-0.2328 0.68,-0.5356 1.0201,-0.7592 l 658.1234,-438.7491 c 10.3916,-6.9261 22.3668,-10.4148 34.3327,-10.4148 11.9519,0 23.9177,3.4887 34.3186,10.4148 l 658.1235,438.7491 c 0.3447,0.2236 0.6614,0.5264 1.0247,0.7592 0.9642,0.6754 1.8771,1.3927 2.804,2.1147 1.1924,0.9455 2.3662,1.9283 3.5027,2.9577 0.8523,0.7545 1.6488,1.5929 2.4593,2.422 1.0806,1.062 2.1053,2.2031 3.0928,3.335 0.7173,0.871 1.4346,1.742 2.1146,2.6875 0.9316,1.2157 1.7839,2.464 2.6177,3.7542 0.5869,0.9502 1.1877,1.8911 1.756,2.8412 0.7778,1.3648 1.4532,2.7249 2.1053,4.1222 0.4704,0.9874 0.9595,1.9702 1.3834,3.0043 0.6055,1.5091 1.0945,3.0275 1.5929,4.5413 0.3168,0.9828 0.694,1.9702 0.9595,2.995 0.4565,1.7047 0.7779,3.4467 1.0806,5.1887 0.1538,0.871 0.3773,1.7746 0.5077,2.6456 0.3401,2.6922 0.5543,5.3798 0.5543,8.1046 l 0,438.74911 c 0,2.72481 -0.2142,5.41235 -0.5543,8.06262 z m -657.5692,315.04767 484.8209,-323.18947 -216.555,-144.871 -268.2659,179.45038 0,288.61009 z m -123.7623,0 0,-288.61009 -268.2519,-179.45038 -216.5736,144.871 484.8255,323.18947 z m -534.3658,-438.94002 154.8159,-103.54718 -154.8159,-103.5565 0,207.10368 z m 534.3658,-646.03438 -484.8208,323.1942 216.5736,144.829 268.2519,-179.4177 0,-288.6055 z m 61.8835,396.0978 -218.8606,146.3894 218.8606,146.38481 218.8466,-146.38481 -218.8466,-146.3894 z m 61.8788,-396.0978 0,288.6055 268.2659,179.4177 216.555,-144.829 -484.8209,-323.1942 z m 534.3612,438.9354 -154.7926,103.5565 154.7926,103.54714 0,-207.10364 z"
         id="path4219"
         style="fill:#f2f2f2;fill-opacity:1" /><path
         d="m 3611.06,36.0749 -213.44,0 0,334.199 c 0,79.687 -1.46,182.203 -110.9799,182.203 -111.1401,0 -128.2001,-86.812 -128.2001,-176.441 l 0,-339.961 -213.39,0 0,687.2149 204.85,0 0,-93.8989 2.86,0 c 28.52,54.0269 98.1801,110.984 202.0901,110.984 216.2799,0 256.2099,-142.3431 256.2099,-327.359 l 0,-376.941 z m -906.73,781.156 c -68.45,0 -123.86,55.494 -123.86,123.864 0,68.3 55.41,123.8 123.86,123.8 68.28,0 123.77,-55.5 123.77,-123.8 0,-68.37 -55.49,-123.864 -123.77,-123.864 z m 106.75,-781.156 -213.59,0 0,687.2149 213.59,0 0,-687.2149 z m 906.35,1227.07 -1227.16,0 c -58.64,0 -106.29,-46.48 -106.29,-103.77 l 0,-1232.332 c 0,-57.3472 47.65,-103.898 106.29,-103.898 l 1227.16,0 c 58.74,0 106.59,46.5508 106.59,103.898 l 0,1232.332 c 0,57.29 -47.85,103.77 -106.59,103.77"
         style="fill:#f2f2f2;fill-opacity:1;fill-rule:nonzero;stroke:none"
         id="path26"
         inkscape:connector-curvature="0" /><path
         inkscape:connector-curvature="0"
         id="path4190"
         d="M 124.0763,5.6299435 C 66.2352,20.779243 20.495,66.901643 5.617,125.07904 0.093,146.67944 0,156.52304 0,719.94044 0,1283.3579 0.093,1293.2015 5.617,1314.8019 20.638,1373.5385 66.456,1419.3602 125.1877,1434.3825 146.7864,1439.907 156.6291,1440 720,1440 c 563.3708,0 573.2136,-0.093 594.8123,-5.6175 58.7317,-15.0223 104.5497,-60.844 119.5708,-119.5806 5.5239,-21.6004 5.6169,-31.444 5.6169,-594.86146 0,-563.4174 -0.093,-573.261 -5.6169,-594.8614 C 1419.362,66.342343 1373.544,20.520643 1314.8123,5.4983435 1293.2028,-0.02885653 1283.6335,-0.11655653 718.847,0.03584347 c -558.1513,0.1504 -574.5768,0.3048 -594.7707,5.59410003 z M 1241.9986,172.56584 c 15.8772,7.3936 24.1575,17.0985 29.0527,34.0509 2.3908,8.2796 3.0317,91.8469 2.4269,316.4324 l -0.822,305.1815 -61.1718,0.758 c -37.4752,0.4644 -61.1719,-0.2815 -61.1719,-1.9256 0,-1.4761 1.8948,-11.6923 4.2108,-22.7027 14.3897,-68.4122 8.8149,-155.0967 -14.4461,-224.62696 C 1117.8475,513.28554 1084.087,459.34634 1032.3298,407.58484 945.8892,321.13704 841.89424,277.98474 720,277.98474 c -121.8566,0 -226.0323,43.2063 -312.3744,129.5555 -78.3337,78.3402 -121.1168,171.57858 -129.0512,281.2449 -2.444,33.7795 0.672,85.955 6.9023,115.5752 2.316,11.0104 4.2108,21.2266 4.2108,22.7027 0,1.6441 -23.6967,2.39 -61.1719,1.9256 l -61.1719,-0.758 -0.8219,-305.1815 c -0.60488,-224.5855 0.036,-308.1528 2.4269,-316.4324 4.8952,-16.9524 13.1755,-26.6573 29.0527,-34.0509 l 14.3423,-6.6788 507.6563,0 507.6562,0 14.3424,6.6788 z m -450.2799,279.8508 c 52.53834,13.983 109.03338,50.9888 143.4261,93.94764 21.5759,26.9496 43.7621,69.91856 52.5891,101.85146 5.3243,19.2614 6.2201,29.5904 6.2201,71.7247 0,58.3431 -4.1146,77.4273 -26.3797,122.3539 -27.10966,54.7019 -70.53318,98.129 -125.23062,125.2409 -44.92278,22.2669 -64.00548,26.3819 -122.34368,26.3819 -58.3382,0 -77.4209,-4.115 -122.3438,-26.3819 -54.6973,-27.1119 -98.1208,-70.539 -125.2305,-125.2409 -22.3533,-45.1045 -26.4297,-64.0386 -26.3424,-122.3539 0.087,-58.4293 4.2548,-77.7855 26.3424,-122.35384 37.5117,-75.69116 106.7484,-130.04196 188.5118,-147.98196 33.0281,-7.247 98.2573,-5.8444 130.7812,2.812 z m 447.1875,548.37406 c 12.0513,5.1327 23.791,16.9246 29.8242,29.9567 4.7264,10.2095 5.2143,19.6827 5.2703,102.3384 0.072,101.3416 -0.85,108.122 -16.8132,124.0865 -15.9632,15.9646 -22.7431,16.8834 -124.0763,16.8147 -82.0129,-0.056 -92.2023,-0.5717 -102.3541,-5.184 -14.5981,-6.6323 -28.6347,-22.7666 -31.4778,-36.1819 -1.2364,-5.8344 -2.2481,-51.7441 -2.2481,-102.0217 0,-83.9221 0.4312,-92.2206 5.2611,-101.2584 9.8312,-18.3965 21.1358,-26.9748 41.1452,-31.22276 17.3889,-3.6917 185.9367,-1.3872 195.4687,2.67246 z"
         style="fill:#f2f2f2;fill-opacity:1" /></g></g></svg>