<?xml version="1.0" encoding="UTF-8" standalone="no"?>
<!-- Created with Inkscape (http://www.inkscape.org/) -->

<svg
   xmlns:dc="http://purl.org/dc/elements/1.1/"
   xmlns:cc="http://creativecommons.org/ns#"
   xmlns:rdf="http://www.w3.org/1999/02/22-rdf-syntax-ns#"
   xmlns:svg="http://www.w3.org/2000/svg"
   xmlns="http://www.w3.org/2000/svg"
   xmlns:sodipodi="http://sodipodi.sourceforge.net/DTD/sodipodi-0.dtd"
   xmlns:inkscape="http://www.inkscape.org/namespaces/inkscape"
   id="svg2"
   version="1.1"
   inkscape:version="0.91 r"
   xml:space="preserve"
   width="180"
   height="180"
   viewBox="0 0 180 180"
   sodipodi:docname="logo_codepen_white.svg"><metadata
     id="metadata8"><rdf:RDF><cc:Work
         rdf:about=""><dc:format>image/svg+xml</dc:format><dc:type
           rdf:resource="http://purl.org/dc/dcmitype/StillImage" /><dc:title></dc:title></cc:Work></rdf:RDF></metadata><defs
     id="defs6" /><sodipodi:namedview
     pagecolor="#ffffff"
     bordercolor="#666666"
     borderopacity="1"
     objecttolerance="10"
     gridtolerance="10"
     guidetolerance="10"
     inkscape:pageopacity="0"
     inkscape:pageshadow="2"
     inkscape:window-width="1366"
     inkscape:window-height="716"
     id="namedview4"
     showgrid="false"
     inkscape:zoom="1"
     inkscape:cx="251.83455"
     inkscape:cy="-128.57067"
     inkscape:window-x="0"
     inkscape:window-y="0"
     inkscape:window-maximized="1"
     inkscape:current-layer="g12" /><g
     id="g10"
     inkscape:groupmode="layer"
     inkscape:label="ink_ext_XXXXXX"
     transform="matrix(1.25,0,0,-1.25,0,180)"><g
       id="g12"
       transform="scale(0.1,0.1)"><path
         inkscape:connector-curvature="0"
         d="m 1439.4457,947.44883 c -0.1304,0.90827 -0.3539,1.77928 -0.5077,2.68754 -0.3027,1.74202 -0.6288,3.48403 -1.0806,5.18877 -0.2655,1.02472 -0.6427,2.00751 -0.9595,2.9903 -0.4937,1.51844 -0.9874,3.03222 -1.5929,4.50874 -0.4239,1.02471 -0.913,2.04476 -1.3834,3.03221 -0.6521,1.39734 -1.3275,2.76207 -2.1053,4.08488 -0.5683,0.98745 -1.1691,1.93763 -1.756,2.87851 -0.8384,1.2902 -1.6861,2.54314 -2.6177,3.75417 -0.68,0.90361 -1.3973,1.81653 -2.1146,2.68754 -0.9875,1.13184 -2.0122,2.26834 -3.0928,3.33497 -0.8105,0.82909 -1.6116,1.66283 -2.4593,2.42671 -1.1365,1.02005 -2.3103,2.0075 -3.5027,2.94837 -0.9222,0.72196 -1.8398,1.44391 -2.804,2.12395 -0.3633,0.22823 -0.68,0.53099 -1.0247,0.75922 L 754.3164,1429.6038 c -20.7925,13.8616 -47.8543,13.8616 -68.6467,0 L 27.5463,990.85937 c -0.3401,-0.22823 -0.6615,-0.53099 -1.0201,-0.75922 -0.9688,-0.68004 -1.8771,-1.40199 -2.7854,-2.12395 -1.211,-0.94553 -2.3848,-1.93298 -3.5026,-2.94838 -0.871,-0.76387 -1.6629,-1.59296 -2.4826,-2.4267 -1.076,-1.06663 -2.1007,-2.20313 -3.0649,-3.33497 -0.7406,-0.87567 -1.4579,-1.78393 -2.1379,-2.68754 -0.9083,-1.21103 -1.7839,-2.46397 -2.5944,-3.75418 -0.6241,-0.94553 -1.211,-1.89106 -1.7793,-2.87851 -0.7592,-1.32281 -1.4392,-2.68754 -2.1006,-4.08487 -0.4751,-0.98279 -0.9689,-2.0075 -1.3834,-3.03222 C 4.0896,961.35232 3.5959,959.83854 3.1068,958.3201 2.7807,957.33731 2.4267,956.35452 2.138,955.3298 1.6862,953.62505 1.3834,951.88304 1.062,950.14103 0.913,949.23277 0.6847,948.36176 0.5683,947.45349 0.2096,944.80321 0,942.11567 0,939.38621 L 0,500.63708 c 0,-2.7248 0.205,-5.41234 0.5683,-8.10454 0.1164,-0.87566 0.3447,-1.77927 0.4937,-2.64562 0.3214,-1.74201 0.6242,-3.48402 1.076,-5.18877 0.2887,-1.02471 0.6427,-2.01216 0.9688,-2.99495 0.4891,-1.50912 0.9828,-3.02756 1.5883,-4.54134 0.4145,-1.03403 0.9083,-2.01682 1.3834,-3.00427 0.666,-1.39733 1.3461,-2.75741 2.1006,-4.12214 0.5683,-0.95018 1.1552,-1.89106 1.7793,-2.84124 0.8105,-1.28555 1.6861,-2.53849 2.5944,-3.75418 0.68,-0.94553 1.402,-1.82119 2.1379,-2.68754 0.9689,-1.13184 1.9889,-2.27299 3.0649,-3.33497 0.8151,-0.82908 1.6116,-1.66283 2.4826,-2.42204 1.1178,-1.02937 2.2916,-2.01217 3.5026,-2.9577 0.9083,-0.72195 1.8212,-1.44391 2.7854,-2.11463 0.3586,-0.23289 0.68,-0.53564 1.0201,-0.75922 L 685.6697,10.4148 C 696.0613,3.48868 708.0365,0 720.0024,0 c 11.9519,0 23.9177,3.48868 34.3186,10.4148 l 658.1235,438.74913 c 0.3447,0.22358 0.6614,0.52633 1.0247,0.75922 0.9642,0.67538 1.8771,1.39268 2.804,2.11463 1.1924,0.94553 2.3662,1.92833 3.5027,2.9577 0.8523,0.75456 1.6488,1.59296 2.4593,2.42204 1.0806,1.06198 2.1053,2.20313 3.0928,3.33497 0.7173,0.87101 1.4346,1.74201 2.1146,2.68754 0.9316,1.21569 1.7839,2.46397 2.6177,3.75418 0.5869,0.95018 1.1877,1.89106 1.756,2.84124 0.7778,1.36473 1.4532,2.72481 2.1053,4.12214 0.4704,0.98745 0.9595,1.97024 1.3834,3.00427 0.6055,1.50912 1.0945,3.02756 1.5929,4.54134 0.3168,0.98279 0.694,1.97024 0.9595,2.99495 0.4565,1.70475 0.7779,3.44676 1.0806,5.18877 0.1538,0.87101 0.3773,1.77462 0.5077,2.64562 0.3401,2.6922 0.5543,5.37974 0.5543,8.10454 l 0,438.74913 c 0,2.72481 -0.2142,5.41235 -0.5543,8.06262 z m -657.5692,315.04767 484.8209,-323.18947 -216.555,-144.871 -268.2659,179.45038 0,288.61009 z m -123.7623,0 0,-288.61009 -268.2519,-179.45038 -216.5736,144.871 484.8255,323.18947 z M 123.7484,823.55648 278.5643,720.00932 123.7484,616.45284 l 0,207.10364 z M 658.1142,177.52206 173.2934,500.71627 389.867,645.54535 658.1189,466.12758 l 0,-288.60552 z M 719.9977,573.61988 501.1371,720.00932 719.9977,866.39411 938.8443,720.00932 719.9977,573.61988 Z m 61.8788,-396.09782 0,288.60552 268.2659,179.41777 216.555,-144.82908 -484.8209,-323.19421 z m 534.3612,438.93544 -154.7926,103.55648 154.7926,103.54716 0,-207.10364 z"
         id="path4219"
         style="fill:#f2f2f2;fill-opacity:1" /></g></g></svg>