<?xml version="1.0" encoding="UTF-8" standalone="no"?>
<!-- Created with Inkscape (http://www.inkscape.org/) -->

<svg
   xmlns:dc="http://purl.org/dc/elements/1.1/"
   xmlns:cc="http://creativecommons.org/ns#"
   xmlns:rdf="http://www.w3.org/1999/02/22-rdf-syntax-ns#"
   xmlns:svg="http://www.w3.org/2000/svg"
   xmlns="http://www.w3.org/2000/svg"
   xmlns:sodipodi="http://sodipodi.sourceforge.net/DTD/sodipodi-0.dtd"
   xmlns:inkscape="http://www.inkscape.org/namespaces/inkscape"
   id="svg2"
   version="1.1"
   inkscape:version="0.91 r"
   xml:space="preserve"
   width="180"
   height="180"
   viewBox="0 0 180 180"
   sodipodi:docname="logo_pb_light.svg"><metadata
     id="metadata8"><rdf:RDF><cc:Work
         rdf:about=""><dc:format>image/svg+xml</dc:format><dc:type
           rdf:resource="http://purl.org/dc/dcmitype/StillImage" /><dc:title></dc:title></cc:Work></rdf:RDF></metadata><defs
     id="defs6" /><sodipodi:namedview
     pagecolor="#ffffff"
     bordercolor="#666666"
     borderopacity="1"
     objecttolerance="10"
     gridtolerance="10"
     guidetolerance="10"
     inkscape:pageopacity="0"
     inkscape:pageshadow="2"
     inkscape:window-width="1366"
     inkscape:window-height="716"
     id="namedview4"
     showgrid="false"
     inkscape:zoom="1"
     inkscape:cx="-228.15873"
     inkscape:cy="133.97374"
     inkscape:window-x="0"
     inkscape:window-y="0"
     inkscape:window-maximized="1"
     inkscape:current-layer="g12" /><g
     id="g10"
     inkscape:groupmode="layer"
     inkscape:label="ink_ext_XXXXXX"
     transform="matrix(1.25,0,0,-1.25,0,180)"><g
       id="g12"
       transform="scale(0.1,0.1)"
       style="display:inline"><circle
         style="opacity:1;fill:#3a6a6d;fill-opacity:1;stroke:none;stroke-width:320;stroke-linecap:butt;stroke-linejoin:round;stroke-miterlimit:4;stroke-dasharray:none;stroke-opacity:1"
         id="path4213"
         cx="728"
         cy="-728"
         r="664"
         transform="scale(1,-1)" /><path
         style="opacity:1;fill:#3a6a6d;fill-opacity:1;stroke:none;stroke-width:34.7649498;stroke-linecap:butt;stroke-linejoin:round;stroke-miterlimit:4;stroke-dasharray:none;stroke-opacity:1"
         d="m 3646.7302,1120 c 0,-182.13218 -72.3517,-356.80469 -201.1386,-485.59159 C 3316.8047,505.62151 3142.1322,433.26978 2960,433.26978 L 2960,1120 Z"
         id="circle6014"
         inkscape:connector-curvature="0"
         sodipodi:nodetypes="csccc" /><path
         sodipodi:nodetypes="csccc"
         inkscape:connector-curvature="0"
         id="path6017"
         d="m 2273.2698,1120 c 0,182.1322 72.3517,356.8047 201.1386,485.5916 128.7869,128.7869 303.4594,201.1386 485.5916,201.1386 L 2960,1120 Z"
         style="opacity:1;fill:#3a6a6d;fill-opacity:1;stroke:none;stroke-width:34.7649498;stroke-linecap:butt;stroke-linejoin:round;stroke-miterlimit:4;stroke-dasharray:none;stroke-opacity:1" /><path
         sodipodi:nodetypes="csccc"
         inkscape:connector-curvature="0"
         id="path6019"
         d="m 2960,433.2698 c -182.1322,0 -356.8047,72.3517 -485.5916,201.1386 C 2345.6215,763.1953 2273.2698,937.8678 2273.2698,1120 L 2960,1120 Z"
         style="opacity:1;fill:#3a6a6d;fill-opacity:1;stroke:none;stroke-width:34.7649498;stroke-linecap:butt;stroke-linejoin:round;stroke-miterlimit:4;stroke-dasharray:none;stroke-opacity:1" /><path
         style="opacity:1;fill:#3a6a6d;fill-opacity:1;stroke:none;stroke-width:34.7649498;stroke-linecap:butt;stroke-linejoin:round;stroke-miterlimit:4;stroke-dasharray:none;stroke-opacity:1"
         d="m 2960,1806.7302 c 182.1322,0 356.8047,-72.3517 485.5916,-201.1386 C 3574.3785,1476.8047 3646.7302,1302.1322 3646.7302,1120 L 2960,1120 Z"
         id="path6021"
         inkscape:connector-curvature="0"
         sodipodi:nodetypes="csccc" /><g
         transform="matrix(0.93893329,0,0,-0.93893329,16.791193,1271.5651)"
         style="font-style:normal;font-variant:normal;font-weight:normal;font-stretch:normal;font-size:320px;line-height:125%;font-family:Sawasdee;-inkscape-font-specification:Sawasdee;letter-spacing:0px;word-spacing:0px;fill:#f2f2f2;fill-opacity:1;stroke:none;stroke-width:1px;stroke-linecap:butt;stroke-linejoin:miter;stroke-opacity:1"
         id="flowRoot4152"><path
           d="m 675.76717,334.9724 q 61.32813,47.65625 61.32813,142.57813 0,94.92187 -61.32813,142.96875 -61.32812,47.65625 -169.14062,47.65625 l -99.21875,0 0,202.34375 -150.39063,0 0,-583.20313 249.60938,0 q 108.20312,0 169.14062,47.65625 z m -93.75,142.57813 q 0,-39.84375 -24.21875,-60.54688 -23.82812,-20.70312 -67.1875,-20.70312 l -83.20312,0 0,162.89062 83.20312,0 q 43.35938,0 67.1875,-20.70312 24.21875,-21.09375 24.21875,-60.9375 z"
           style="font-style:normal;font-variant:normal;font-weight:bold;font-stretch:normal;font-size:800px;line-height:125%;font-family:Waree;-inkscape-font-specification:'Waree Bold';letter-spacing:-64.08000183px;fill:#f2f2f2;fill-opacity:1"
           id="path4191"
           inkscape:connector-curvature="0" /><path
           inkscape:connector-curvature="0"
           id="path6171"
           style="font-style:normal;font-variant:normal;font-weight:bold;font-stretch:normal;font-size:800px;line-height:125%;font-family:Waree;-inkscape-font-specification:'Waree Bold';letter-spacing:-64.08000183px;fill:#f2f2f2;fill-opacity:1"
           d="m 1221.0668,822.86303 q 61.3281,-47.65625 61.3281,-142.57813 0,-94.92187 -61.3281,-142.96875 -61.3281,-47.65625 -169.1406,-47.65625 l -99.21876,0 0,-202.34375 -150.39063,0 0,583.20313 249.60939,0 q 108.2031,0 169.1406,-47.65625 z m -93.75,-142.57813 q 0,39.84375 -24.2188,60.54688 -23.8281,20.70312 -67.1875,20.70312 l -83.20306,0 0,-162.89062 83.20306,0 q 43.3594,0 67.1875,20.70312 24.2188,21.09375 24.2188,60.9375 z" /></g><rect
         style="opacity:1;fill:#f2f2f2;fill-opacity:1;stroke:#000000;stroke-width:40;stroke-linecap:butt;stroke-linejoin:round;stroke-miterlimit:4;stroke-dasharray:none;stroke-opacity:1"
         id="rect6023"
         width="704"
         height="704"
         x="-3088"
         y="-2704"
         transform="scale(1,-1)"
         rx="233.3336"
         ry="233.3336" /><rect
         ry="233.3336"
         rx="233.3336"
         transform="scale(1,-1)"
         y="-1904"
         x="-3088"
         height="704"
         width="704"
         id="rect6025"
         style="opacity:1;fill:#3a6a6d;fill-opacity:1;stroke:#000000;stroke-width:40;stroke-linecap:butt;stroke-linejoin:round;stroke-miterlimit:4;stroke-dasharray:none;stroke-opacity:1" /><rect
         style="opacity:1;fill:#0d282f;fill-opacity:1;stroke:#000000;stroke-width:40;stroke-linecap:butt;stroke-linejoin:round;stroke-miterlimit:4;stroke-dasharray:none;stroke-opacity:1"
         id="rect6027"
         width="704"
         height="704"
         x="-3088"
         y="-1104"
         transform="scale(1,-1)"
         rx="233.3336"
         ry="233.3336" /><rect
         ry="233.3336"
         rx="233.3336"
         transform="scale(1,-1)"
         y="-304"
         x="-3088"
         height="704"
         width="704"
         id="rect6029"
         style="opacity:1;fill:#3a6a6d;fill-opacity:1;stroke:#000000;stroke-width:40;stroke-linecap:butt;stroke-linejoin:round;stroke-miterlimit:4;stroke-dasharray:none;stroke-opacity:1" /><rect
         style="opacity:1;fill:#3a6a6d;fill-opacity:1;stroke:#000000;stroke-width:40;stroke-linecap:butt;stroke-linejoin:round;stroke-miterlimit:4;stroke-dasharray:none;stroke-opacity:1"
         id="rect6031"
         width="704"
         height="704"
         x="-3088"
         y="496"
         transform="scale(1,-1)"
         rx="233.3336"
         ry="233.3336" /></g></g></svg>