<?xml version="1.0" encoding="UTF-8" standalone="no"?>
<!-- Created with Inkscape (http://www.inkscape.org/) -->

<svg
   xmlns:dc="http://purl.org/dc/elements/1.1/"
   xmlns:cc="http://creativecommons.org/ns#"
   xmlns:rdf="http://www.w3.org/1999/02/22-rdf-syntax-ns#"
   xmlns:svg="http://www.w3.org/2000/svg"
   xmlns="http://www.w3.org/2000/svg"
   xmlns:sodipodi="http://sodipodi.sourceforge.net/DTD/sodipodi-0.dtd"
   xmlns:inkscape="http://www.inkscape.org/namespaces/inkscape"
   width="744.09448"
   height="496.06299"
   viewBox="0 0 744.09449 496.06299"
   id="svg4201"
   version="1.1"
   inkscape:version="0.91 r"
   sodipodi:docname="toolbox.svg">
  <defs
     id="defs4203" />
  <sodipodi:namedview
     id="base"
     pagecolor="#ffffff"
     bordercolor="#666666"
     borderopacity="1.0"
     inkscape:pageopacity="0.0"
     inkscape:pageshadow="2"
     inkscape:zoom="0.35355339"
     inkscape:cx="222.2603"
     inkscape:cy="560.98376"
     inkscape:document-units="px"
     inkscape:current-layer="g4235"
     showgrid="false"
     showguides="false"
     inkscape:window-width="1366"
     inkscape:window-height="692"
     inkscape:window-x="0"
     inkscape:window-y="25"
     inkscape:window-maximized="1"
     units="px" />
  <metadata
     id="metadata4206">
    <rdf:RDF>
      <cc:Work
         rdf:about="">
        <dc:format>image/svg+xml</dc:format>
        <dc:type
           rdf:resource="http://purl.org/dc/dcmitype/StillImage" />
        <dc:title></dc:title>
      </cc:Work>
    </rdf:RDF>
  </metadata>
  <g
     inkscape:label="Layer 1"
     inkscape:groupmode="layer"
     id="layer1"
     transform="translate(0,-556.29921)">
    <g
       id="g4235"
       transform="translate(0,548.71486)">
      <path
         sodipodi:nodetypes="csssscccccccssssccccccc"
         inkscape:connector-curvature="0"
         id="rect4213"
         d="m 626.36166,263.85829 0,118.42854 c 0,28.88716 -23.25573,52.1429 -52.1429,52.1429 l -409.9999,0 c -28.88717,0 -52.14286,-23.25574 -52.1429,-52.1429 l -1.5e-4,-118.42854 229.143,0 0,29.8449 56,0 0,-29.8449 z m -534.285839,-19.42857 1.5e-4,-40.71424 c 1.1e-4,-28.88717 23.255719,-52.1429 52.142889,-52.1429 l 449.9999,0 c 28.88717,0 52.14279,23.25573 52.1429,52.1429 l 1.5e-4,40.71424 m 0,-2.9e-4 -249.143,0 0,-24 -56,0 0,24 -249.142989,2.9e-4"
         style="opacity:1;fill:#3a6a6d;fill-opacity:1;stroke:none;stroke-width:35.05099869;stroke-linecap:round;stroke-linejoin:round;stroke-miterlimit:4;stroke-dasharray:none;stroke-opacity:1" />
      <rect
         y="237.21545"
         x="354.77469"
         height="40"
         width="28.888321"
         id="rect4230"
         style="opacity:1;fill:#000000;fill-opacity:0.93333333;stroke:none;stroke-width:35.05099869;stroke-linecap:round;stroke-linejoin:round;stroke-miterlimit:4;stroke-dasharray:none;stroke-opacity:1" />
      <path
         sodipodi:nodetypes="cssssc"
         inkscape:connector-curvature="0"
         id="rect4232"
         d="m 252.34009,141.52182 0,-50.760932 c 0,-8.31 7.372,-15 16.52915,-15 l 200.69914,0 c 9.15716,0 16.52915,6.69 16.52915,15 l 0,50.760932"
         style="opacity:1;fill:none;fill-opacity:0.93333333;stroke:#000000;stroke-width:19.99999809;stroke-linecap:butt;stroke-linejoin:round;stroke-miterlimit:4;stroke-dasharray:none;stroke-opacity:1" />
    </g>
  </g>
</svg>
